<svg width="734" height="640" viewBox="0 0 734 640" fill="none" xmlns="http://www.w3.org/2000/svg" xmlns:xlink="http://www.w3.org/1999/xlink">
<rect width="734" height="640" fill="url(#pattern0)"/>
<defs>
<pattern id="pattern0" patternContentUnits="objectBoundingBox" width="1" height="1">
<use xlink:href="#image0_1_86" transform="translate(-0.00408719) scale(0.0013624 0.0015625)"/>
</pattern>
<image id="image0_1_86" width="740" height="640" xlink:href="img/home.png"/>
</defs>
<path d="M222 531.638L442.8 539.719L512 525.88V547.8L443.5 567.7L222 556.589V531.638Z" fill="#3595F6" fill-opacity="0.75"/>
<path d="M223 530.628V505.375L443.3 508.708L513 505.375V525.577L443.7 538.709L223 530.628Z" fill="#3595F6" fill-opacity="0.75"/>
<path d="M223 504.365V479.111H444H513V502.344L445 509.415L223 504.365Z" fill="#3595F6" fill-opacity="0.75"/>
<path d="M223 480.121V454.868L444.3 451.131L512 457.898V480.121H444" fill="#3595F6" fill-opacity="0.75"/>
<path d="M223 453.858V427.594L444.5 424.261L513 435.372V456.888L444 450.12L223 453.858Z" fill="#3595F6" fill-opacity="0.75"/>
<path d="M222 426.584V402.644L443 390.219L514 413.453V434.968L443 422.544L222 426.584Z" fill="#3595F6" fill-opacity="0.75"/>
<path d="M222 404.361V379.108L444.2 362.643L514 391.533V412.442L443.7 390.522L222 404.361Z" fill="#3595F6" fill-opacity="0.75"/>
<path d="M222 379.108V353.855L444.5 333.349L514 370.32V391.23L442 362.239L222 379.108Z" fill="#3595F6" fill-opacity="0.75"/>
<path d="M222 352.845V328.601L445 303.651L514 348.097V370.017L444.7 331.632L222 352.845Z" fill="#3595F6" fill-opacity="0.75"/>
<path d="M222 327.591V303.348L444.5 274.357L514 325.874V346.784L443.7 304.055L222 327.591Z" fill="#3595F6" fill-opacity="0.75"/>
<path d="M221 303.348V279.105L443.3 245.77L514 305.671V325.571L444 274.357L221 303.348Z" fill="#3595F6" fill-opacity="0.75"/>
<path d="M222 278.095V253.851L443.2 218.497L513 283.145V304.358L444.3 245.467L222 278.095Z" fill="#3595F6" fill-opacity="0.75"/>
<path d="M222 253.851V228.598L444.3 190.213L513 261.225V282.135L444 217.487L222 253.851Z" fill="#3595F6" fill-opacity="0.75"/>
<path d="M222 227.588V202.335L442.8 158.192L513 237.992V260.922L444 186.88L222 227.588Z" fill="#3595F6" fill-opacity="0.75"/>
<path d="M223 203.345V178.091L443 129.605L513 215.466V238.699L442.3 158.596L223 203.345Z" fill="#3595F6" fill-opacity="0.75"/>
<path d="M222 178.091V152.838L441.8 100.311L513 193.546V216.477L443.3 129.302L222 178.091Z" fill="#3595F6" fill-opacity="0.75"/>
<path d="M222 152.838V126.575L444 69.3L513 172.031V193.243L443.7 100.614L222 152.838Z" fill="#3595F6" fill-opacity="0.75"/>

</svg>
